ffmpeg started on 2026-01-14 at 14:19:44
Report written to "D:\Convert\FFMetrics\reports\psnr_report-6.txt"
Log level: 32
Command line:
ffmpeg -hide_banner -nostdin -r 24000/1001 -i "F:\\Convert\\files\\[DC] Make Heroine ga Oosugiru - 07_Telegram_HEVC(135).mkv" -r 24000/1001 -i "F:\\Convert\\files\\[DC] Make Heroine ga Oosugiru - 07_Telegram.mp4" -lavfi "[0:v]settb=AVTB,setpts=PTS-STARTPTS,format=pix_fmts=yuv420p10le,fps=24000/1001,scale=1920:1080:flags=lanczos:param0=3:out_range=limited:out_color_matrix=bt709:out_chroma_loc=left,setsar=1/1,setdar=(1920/1080)*(1/1),colorspace=format=yuv420p10:range=tv:primaries=bt709:trc=bt709:space=bt709:fast=0[main];[1:v]settb=AVTB,setpts=PTS-STARTPTS,format=pix_fmts=yuv420p,fps=24000/1001,scale=1920:1080:flags=lanczos:param0=3:out_range=limited:out_color_matrix=bt709:out_chroma_loc=left,setsar=1.000,setdar=1.778,colorspace=format=yuv420p:range=tv:primaries=bt709:trc=bt709:space=bt709:fast=0[ref];[main][ref]psnr=eof_action=endall:stats_file='D\\:/Convert/FFMetrics/logs/psnr_logfile-6.txt'" -f null -
Input #0, matroska,webm, from 'F:\Convert\files\[DC] Make Heroine ga Oosugiru - 07_Telegram_HEVC(135).mkv':
  Metadata:
    COMPATIBLE_BRANDS: isomiso2avc1mp41
    MAJOR_BRAND     : isom
    MINOR_VERSION   : 512
    ENCODER         : Lavf61.7.100
  Duration: 00:24:06.79, start: -0.021000, bitrate: 971 kb/s
  Stream #0:0: Video: hevc (Main 10), yuv420p10le(tv, bt709, progressive), 1920x1080 [SAR 1:1 DAR 16:9], 23.98 fps, 23.98 tbr, 1k tbn (default)
      Metadata:
        HANDLER_NAME    : VideoHandler
        VENDOR_ID       : [0][0][0][0]
        ENCODER         : Lavc61.19.100 libx265
        BPS             : 773970
        DURATION        : 00:24:06.569708333
        NUMBER_OF_FRAMES: 34683
        NUMBER_OF_BYTES : 139950239
        _STATISTICS_WRITING_APP: mkvpropedit v94.0 ('Initiate') 64-bit
        _STATISTICS_WRITING_DATE_UTC: 2026-01-14 10:11:10
        _STATISTICS_TAGS: BPS DURATION NUMBER_OF_FRAMES NUMBER_OF_BYTES
  Stream #0:1: Audio: aac (LC), 48000 Hz, stereo, fltp (default)
      Metadata:
        HANDLER_NAME    : SoundHandler
        VENDOR_ID       : [0][0][0][0]
        ENCODER         : Lavc61.19.100 aac
        BPS             : 193194
        DURATION        : 00:24:06.784000000
        NUMBER_OF_FRAMES: 67819
        NUMBER_OF_BYTES : 34938755
        _STATISTICS_WRITING_APP: mkvpropedit v94.0 ('Initiate') 64-bit
        _STATISTICS_WRITING_DATE_UTC: 2026-01-14 10:11:10
        _STATISTICS_TAGS: BPS DURATION NUMBER_OF_FRAMES NUMBER_OF_BYTES
Input #1, mov,mp4,m4a,3gp,3g2,mj2, from 'F:\Convert\files\[DC] Make Heroine ga Oosugiru - 07_Telegram.mp4':
  Metadata:
    major_brand     : isom
    minor_version   : 512
    compatible_brands: isomiso2avc1mp41
    encoder         : Lavf60.16.100
  Duration: 00:24:06.74, start: 0.000000, bitrate: 3764 kb/s
  Stream #1:0[0x1](und): Video: h264 (High) (avc1 / 0x31637661), yuv420p(tv, bt709, progressive), 1920x1080 [SAR 1:1 DAR 16:9], 3616 kb/s, 23.98 fps, 23.98 tbr, 24k tbn (default)
      Metadata:
        handler_name    : VideoHandler
        vendor_id       : [0][0][0][0]
        encoder         : Lavc60.31.102 h264_qsv
  Stream #1:1[0x2](und): Audio: aac (HE-AACv2) (mp4a / 0x6134706D), 48000 Hz, stereo, fltp, 144 kb/s (default)
      Metadata:
        handler_name    : SoundHandler
        vendor_id       : [0][0][0][0]
Stream mapping:
  Stream #0:0 (hevc) -> settb:default
  Stream #1:0 (h264) -> settb:default
  psnr:default -> Stream #0:0 (wrapped_avframe)
  Stream #0:1 -> #0:1 (aac (native) -> pcm_s16le (native))
Output #0, null, to 'pipe:':
  Metadata:
    COMPATIBLE_BRANDS: isomiso2avc1mp41
    MAJOR_BRAND     : isom
    MINOR_VERSION   : 512
    encoder         : Lavf61.7.100
  Stream #0:0: Video: wrapped_avframe, yuv420p10le(tv, bt709, progressive), 1920x1080 [SAR 1:1 DAR 16:9], q=2-31, 200 kb/s, 23.98 fps, 23.98 tbn
      Metadata:
        encoder         : Lavc61.19.100 wrapped_avframe
  Stream #0:1: Audio: pcm_s16le, 48000 Hz, stereo, s16, 1536 kb/s (default)
      Metadata:
        HANDLER_NAME    : SoundHandler
        VENDOR_ID       : [0][0][0][0]
        _STATISTICS_TAGS: BPS DURATION NUMBER_OF_FRAMES NUMBER_OF_BYTES
        BPS             : 193194
        DURATION        : 00:24:06.784000000
        NUMBER_OF_FRAMES: 67819
        NUMBER_OF_BYTES : 34938755
        _STATISTICS_WRITING_APP: mkvpropedit v94.0 ('Initiate') 64-bit
        _STATISTICS_WRITING_DATE_UTC: 2026-01-14 10:11:10
        encoder         : Lavc61.19.100 pcm_s16le
frame=  125 fps=0.0 q=-0.0 size=N/A time=00:00:05.21 bitrate=N/A speed=9.98x    frame=  309 fps=299 q=-0.0 size=N/A time=00:00:12.88 bitrate=N/A speed=12.5x    frame=  496 fps=321 q=-0.0 size=N/A time=00:00:20.68 bitrate=N/A speed=13.4x    frame=  686 fps=331 q=-0.0 size=N/A time=00:00:28.61 bitrate=N/A speed=13.8x    frame=  874 fps=338 q=-0.0 size=N/A time=00:00:36.45 bitrate=N/A speed=14.1x    frame= 1004 fps=324 q=-0.0 size=N/A time=00:00:41.87 bitrate=N/A speed=13.5x    frame= 1160 fps=322 q=-0.0 size=N/A time=00:00:48.38 bitrate=N/A speed=13.4x    frame= 1319 fps=319 q=-0.0 size=N/A time=00:00:55.01 bitrate=N/A speed=13.3x    frame= 1476 fps=318 q=-0.0 size=N/A time=00:01:01.56 bitrate=N/A speed=13.3x    frame= 1620 fps=314 q=-0.0 size=N/A time=00:01:07.56 bitrate=N/A speed=13.1x    frame= 1768 fps=312 q=-0.0 size=N/A time=00:01:13.74 bitrate=N/A speed=  13x    frame= 1925 fps=311 q=-0.0 size=N/A time=00:01:20.28 bitrate=N/A speed=  13x    frame= 2063 fps=308 q=-0.0 size=N/A time=00:01:26.04 bitrate=N/A speed=12.8x    frame= 2193 fps=304 q=-0.0 size=N/A time=00:01:31.46 bitrate=N/A speed=12.7x    frame= 2344 fps=303 q=-0.0 size=N/A time=00:01:37.76 bitrate=N/A speed=12.6x    frame= 2477 fps=300 q=-0.0 size=N/A time=00:01:43.31 bitrate=N/A speed=12.5x    frame= 2617 fps=298 q=-0.0 size=N/A time=00:01:49.15 bitrate=N/A speed=12.4x    frame= 2790 fps=301 q=-0.0 size=N/A time=00:01:56.36 bitrate=N/A speed=12.5x    frame= 2959 fps=302 q=-0.0 size=N/A time=00:02:03.41 bitrate=N/A speed=12.6x    frame= 3150 fps=305 q=-0.0 size=N/A time=00:02:11.38 bitrate=N/A speed=12.7x    frame= 3337 fps=308 q=-0.0 size=N/A time=00:02:19.18 bitrate=N/A speed=12.8x    frame= 3528 fps=311 q=-0.0 size=N/A time=00:02:27.14 bitrate=N/A speed=  13x    frame= 3712 fps=313 q=-0.0 size=N/A time=00:02:34.82 bitrate=N/A speed=13.1x    frame= 3908 fps=316 q=-0.0 size=N/A time=00:02:42.99 bitrate=N/A speed=13.2x    frame= 4087 fps=317 q=-0.0 size=N/A time=00:02:50.46 bitrate=N/A speed=13.2x    frame= 4275 fps=319 q=-0.0 size=N/A time=00:02:58.30 bitrate=N/A speed=13.3x    frame= 4462 fps=321 q=-0.0 size=N/A time=00:03:06.10 bitrate=N/A speed=13.4x    frame= 4657 fps=322 q=-0.0 size=N/A time=00:03:14.23 bitrate=N/A speed=13.4x    frame= 4842 fps=324 q=-0.0 size=N/A time=00:03:21.95 bitrate=N/A speed=13.5x    frame= 5033 fps=325 q=-0.0 size=N/A time=00:03:29.91 bitrate=N/A speed=13.6x    frame= 5219 fps=326 q=-0.0 size=N/A time=00:03:37.67 bitrate=N/A speed=13.6x    frame= 5413 fps=328 q=-0.0 size=N/A time=00:03:45.76 bitrate=N/A speed=13.7x    frame= 5598 fps=329 q=-0.0 size=N/A time=00:03:53.48 bitrate=N/A speed=13.7x    frame= 5789 fps=330 q=-0.0 size=N/A time=00:04:01.44 bitrate=N/A speed=13.8x    frame= 5970 fps=331 q=-0.0 size=N/A time=00:04:08.99 bitrate=N/A speed=13.8x    frame= 6161 fps=332 q=-0.0 size=N/A time=00:04:16.96 bitrate=N/A speed=13.8x    frame= 6356 fps=333 q=-0.0 size=N/A time=00:04:25.09 bitrate=N/A speed=13.9x    frame= 6543 fps=334 q=-0.0 size=N/A time=00:04:32.89 bitrate=N/A speed=13.9x    frame= 6731 fps=335 q=-0.0 size=N/A time=00:04:40.73 bitrate=N/A speed=  14x    frame= 6916 fps=335 q=-0.0 size=N/A time=00:04:48.45 bitrate=N/A speed=  14x    frame= 7103 fps=336 q=-0.0 size=N/A time=00:04:56.25 bitrate=N/A speed=  14x    frame= 7288 fps=337 q=-0.0 size=N/A time=00:05:03.97 bitrate=N/A speed=  14x    frame= 7467 fps=337 q=-0.0 size=N/A time=00:05:11.43 bitrate=N/A speed=  14x    frame= 7653 fps=337 q=-0.0 size=N/A time=00:05:19.19 bitrate=N/A speed=14.1x    frame= 7841 fps=338 q=-0.0 size=N/A time=00:05:27.03 bitrate=N/A speed=14.1x    frame= 8019 fps=338 q=-0.0 size=N/A time=00:05:34.45 bitrate=N/A speed=14.1x    frame= 8210 fps=339 q=-0.0 size=N/A time=00:05:42.42 bitrate=N/A speed=14.1x    frame= 8395 fps=339 q=-0.0 size=N/A time=00:05:50.14 bitrate=N/A speed=14.1x    frame= 8590 fps=340 q=-0.0 size=N/A time=00:05:58.27 bitrate=N/A speed=14.2x    frame= 8775 fps=340 q=-0.0 size=N/A time=00:06:05.99 bitrate=N/A speed=14.2x    frame= 8956 fps=341 q=-0.0 size=N/A time=00:06:13.53 bitrate=N/A speed=14.2x    frame= 9148 fps=341 q=-0.0 size=N/A time=00:06:21.54 bitrate=N/A speed=14.2x    frame= 9340 fps=341 q=-0.0 size=N/A time=00:06:29.55 bitrate=N/A speed=14.2x    frame= 9523 fps=342 q=-0.0 size=N/A time=00:06:37.18 bitrate=N/A speed=14.3x    frame= 9704 fps=342 q=-0.0 size=N/A time=00:06:44.73 bitrate=N/A speed=14.3x    frame= 9894 fps=342 q=-0.0 size=N/A time=00:06:52.66 bitrate=N/A speed=14.3x    frame=10084 fps=343 q=-0.0 size=N/A time=00:07:00.58 bitrate=N/A speed=14.3x    frame=10271 fps=343 q=-0.0 size=N/A time=00:07:08.38 bitrate=N/A speed=14.3x    frame=10447 fps=343 q=-0.0 size=N/A time=00:07:15.72 bitrate=N/A speed=14.3x    frame=10632 fps=344 q=-0.0 size=N/A time=00:07:23.44 bitrate=N/A speed=14.3x    frame=10826 fps=344 q=-0.0 size=N/A time=00:07:31.53 bitrate=N/A speed=14.3x    frame=11012 fps=344 q=-0.0 size=N/A time=00:07:39.29 bitrate=N/A speed=14.4x    frame=11195 fps=344 q=-0.0 size=N/A time=00:07:46.92 bitrate=N/A speed=14.4x    frame=11383 fps=345 q=-0.0 size=N/A time=00:07:54.76 bitrate=N/A speed=14.4x    frame=11570 fps=345 q=-0.0 size=N/A time=00:08:02.56 bitrate=N/A speed=14.4x    frame=11754 fps=345 q=-0.0 size=N/A time=00:08:10.23 bitrate=N/A speed=14.4x    frame=11947 fps=346 q=-0.0 size=N/A time=00:08:18.28 bitrate=N/A speed=14.4x    frame=12136 fps=346 q=-0.0 size=N/A time=00:08:26.17 bitrate=N/A speed=14.4x    frame=12321 fps=346 q=-0.0 size=N/A time=00:08:33.88 bitrate=N/A speed=14.4x    frame=12499 fps=346 q=-0.0 size=N/A time=00:08:41.31 bitrate=N/A speed=14.4x    frame=12691 fps=346 q=-0.0 size=N/A time=00:08:49.32 bitrate=N/A speed=14.4x    frame=12881 fps=347 q=-0.0 size=N/A time=00:08:57.24 bitrate=N/A speed=14.5x    frame=13069 fps=347 q=-0.0 size=N/A time=00:09:05.08 bitrate=N/A speed=14.5x    frame=13254 fps=347 q=-0.0 size=N/A time=00:09:12.80 bitrate=N/A speed=14.5x    frame=13444 fps=347 q=-0.0 size=N/A time=00:09:20.72 bitrate=N/A speed=14.5x    frame=13629 fps=348 q=-0.0 size=N/A time=00:09:28.44 bitrate=N/A speed=14.5x    frame=13817 fps=348 q=-0.0 size=N/A time=00:09:36.28 bitrate=N/A speed=14.5x    frame=14000 fps=348 q=-0.0 size=N/A time=00:09:43.91 bitrate=N/A speed=14.5x    frame=14177 fps=348 q=-0.0 size=N/A time=00:09:51.29 bitrate=N/A speed=14.5x    frame=14361 fps=348 q=-0.0 size=N/A time=00:09:58.97 bitrate=N/A speed=14.5x    frame=14546 fps=348 q=-0.0 size=N/A time=00:10:06.68 bitrate=N/A speed=14.5x    frame=14728 fps=348 q=-0.0 size=N/A time=00:10:14.28 bitrate=N/A speed=14.5x    frame=14919 fps=348 q=-0.0 size=N/A time=00:10:22.24 bitrate=N/A speed=14.5x    frame=15096 fps=348 q=-0.0 size=N/A time=00:10:29.62 bitrate=N/A speed=14.5x    frame=15261 fps=348 q=-0.0 size=N/A time=00:10:36.51 bitrate=N/A speed=14.5x    frame=15448 fps=348 q=-0.0 size=N/A time=00:10:44.31 bitrate=N/A speed=14.5x    frame=15631 fps=348 q=-0.0 size=N/A time=00:10:51.94 bitrate=N/A speed=14.5x    frame=15814 fps=348 q=-0.0 size=N/A time=00:10:59.57 bitrate=N/A speed=14.5x    frame=16007 fps=349 q=-0.0 size=N/A time=00:11:07.62 bitrate=N/A speed=14.5x    frame=16190 fps=349 q=-0.0 size=N/A time=00:11:15.25 bitrate=N/A speed=14.5x    frame=16382 fps=349 q=-0.0 size=N/A time=00:11:23.26 bitrate=N/A speed=14.6x    frame=16571 fps=349 q=-0.0 size=N/A time=00:11:31.14 bitrate=N/A speed=14.6x    frame=16761 fps=349 q=-0.0 size=N/A time=00:11:39.07 bitrate=N/A speed=14.6x    frame=16948 fps=349 q=-0.0 size=N/A time=00:11:46.87 bitrate=N/A speed=14.6x    frame=17139 fps=350 q=-0.0 size=N/A time=00:11:54.83 bitrate=N/A speed=14.6x    frame=17329 fps=350 q=-0.0 size=N/A time=00:12:02.76 bitrate=N/A speed=14.6x    frame=17506 fps=350 q=-0.0 size=N/A time=00:12:10.14 bitrate=N/A speed=14.6x    frame=17693 fps=350 q=-0.0 size=N/A time=00:12:17.94 bitrate=N/A speed=14.6x    frame=17879 fps=350 q=-0.0 size=N/A time=00:12:25.70 bitrate=N/A speed=14.6x    frame=18073 fps=350 q=-0.0 size=N/A time=00:12:33.79 bitrate=N/A speed=14.6x    frame=18247 fps=350 q=-0.0 size=N/A time=00:12:41.05 bitrate=N/A speed=14.6x    frame=18422 fps=350 q=-0.0 size=N/A time=00:12:48.35 bitrate=N/A speed=14.6x    frame=18604 fps=350 q=-0.0 size=N/A time=00:12:55.94 bitrate=N/A speed=14.6x    frame=18797 fps=350 q=-0.0 size=N/A time=00:13:03.99 bitrate=N/A speed=14.6x    frame=18982 fps=350 q=-0.0 size=N/A time=00:13:11.70 bitrate=N/A speed=14.6x    frame=19171 fps=350 q=-0.0 size=N/A time=00:13:19.59 bitrate=N/A speed=14.6x    frame=19362 fps=351 q=-0.0 size=N/A time=00:13:27.55 bitrate=N/A speed=14.6x    frame=19507 fps=350 q=-0.0 size=N/A time=00:13:33.60 bitrate=N/A speed=14.6x    frame=19693 fps=350 q=-0.0 size=N/A time=00:13:41.36 bitrate=N/A speed=14.6x    frame=19879 fps=350 q=-0.0 size=N/A time=00:13:49.11 bitrate=N/A speed=14.6x    frame=20071 fps=350 q=-0.0 size=N/A time=00:13:57.12 bitrate=N/A speed=14.6x    frame=20261 fps=351 q=-0.0 size=N/A time=00:14:05.05 bitrate=N/A speed=14.6x    frame=20438 fps=351 q=-0.0 size=N/A time=00:14:12.43 bitrate=N/A speed=14.6x    frame=20618 fps=350 q=-0.0 size=N/A time=00:14:19.94 bitrate=N/A speed=14.6x    frame=20804 fps=351 q=-0.0 size=N/A time=00:14:27.70 bitrate=N/A speed=14.6x    frame=20995 fps=351 q=-0.0 size=N/A time=00:14:35.66 bitrate=N/A speed=14.6x    frame=21187 fps=351 q=-0.0 size=N/A time=00:14:43.67 bitrate=N/A speed=14.6x    frame=21370 fps=351 q=-0.0 size=N/A time=00:14:51.30 bitrate=N/A speed=14.6x    frame=21559 fps=351 q=-0.0 size=N/A time=00:14:59.18 bitrate=N/A speed=14.6x    frame=21752 fps=351 q=-0.0 size=N/A time=00:15:07.23 bitrate=N/A speed=14.6x    frame=21933 fps=351 q=-0.0 size=N/A time=00:15:14.78 bitrate=N/A speed=14.7x    frame=22125 fps=351 q=-0.0 size=N/A time=00:15:22.79 bitrate=N/A speed=14.7x    frame=22308 fps=351 q=-0.0 size=N/A time=00:15:30.42 bitrate=N/A speed=14.7x    frame=22494 fps=352 q=-0.0 size=N/A time=00:15:38.18 bitrate=N/A speed=14.7x    frame=22687 fps=352 q=-0.0 size=N/A time=00:15:46.23 bitrate=N/A speed=14.7x    frame=22863 fps=352 q=-0.0 size=N/A time=00:15:53.57 bitrate=N/A speed=14.7x    frame=23034 fps=351 q=-0.0 size=N/A time=00:16:00.70 bitrate=N/A speed=14.7x    frame=23213 fps=351 q=-0.0 size=N/A time=00:16:08.17 bitrate=N/A speed=14.7x    frame=23398 fps=351 q=-0.0 size=N/A time=00:16:15.89 bitrate=N/A speed=14.7x    frame=23590 fps=352 q=-0.0 size=N/A time=00:16:23.89 bitrate=N/A speed=14.7x    frame=23777 fps=352 q=-0.0 size=N/A time=00:16:31.69 bitrate=N/A speed=14.7x    frame=23964 fps=352 q=-0.0 size=N/A time=00:16:39.49 bitrate=N/A speed=14.7x    frame=24153 fps=352 q=-0.0 size=N/A time=00:16:47.38 bitrate=N/A speed=14.7x    frame=24343 fps=352 q=-0.0 size=N/A time=00:16:55.30 bitrate=N/A speed=14.7x    frame=24521 fps=352 q=-0.0 size=N/A time=00:17:02.73 bitrate=N/A speed=14.7x    frame=24715 fps=352 q=-0.0 size=N/A time=00:17:10.82 bitrate=N/A speed=14.7x    frame=24899 fps=352 q=-0.0 size=N/A time=00:17:18.49 bitrate=N/A speed=14.7x    frame=25089 fps=352 q=-0.0 size=N/A time=00:17:26.42 bitrate=N/A speed=14.7x    frame=25273 fps=352 q=-0.0 size=N/A time=00:17:34.09 bitrate=N/A speed=14.7x    frame=25466 fps=352 q=-0.0 size=N/A time=00:17:42.14 bitrate=N/A speed=14.7x    frame=25645 fps=352 q=-0.0 size=N/A time=00:17:49.61 bitrate=N/A speed=14.7x    frame=25830 fps=352 q=-0.0 size=N/A time=00:17:57.32 bitrate=N/A speed=14.7x    frame=26016 fps=352 q=-0.0 size=N/A time=00:18:05.08 bitrate=N/A speed=14.7x    frame=26208 fps=353 q=-0.0 size=N/A time=00:18:13.09 bitrate=N/A speed=14.7x    frame=26394 fps=353 q=-0.0 size=N/A time=00:18:20.84 bitrate=N/A speed=14.7x    frame=26576 fps=353 q=-0.0 size=N/A time=00:18:28.44 bitrate=N/A speed=14.7x    frame=26766 fps=353 q=-0.0 size=N/A time=00:18:36.36 bitrate=N/A speed=14.7x    frame=26945 fps=353 q=-0.0 size=N/A time=00:18:43.83 bitrate=N/A speed=14.7x    frame=27116 fps=353 q=-0.0 size=N/A time=00:18:50.96 bitrate=N/A speed=14.7x    frame=27294 fps=352 q=-0.0 size=N/A time=00:18:58.38 bitrate=N/A speed=14.7x    frame=27486 fps=353 q=-0.0 size=N/A time=00:19:06.39 bitrate=N/A speed=14.7x    frame=27666 fps=353 q=-0.0 size=N/A time=00:19:13.90 bitrate=N/A speed=14.7x    frame=27844 fps=353 q=-0.0 size=N/A time=00:19:21.32 bitrate=N/A speed=14.7x    frame=28031 fps=353 q=-0.0 size=N/A time=00:19:29.12 bitrate=N/A speed=14.7x    frame=28207 fps=353 q=-0.0 size=N/A time=00:19:36.46 bitrate=N/A speed=14.7x    frame=28391 fps=353 q=-0.0 size=N/A time=00:19:44.14 bitrate=N/A speed=14.7x    frame=28574 fps=353 q=-0.0 size=N/A time=00:19:51.77 bitrate=N/A speed=14.7x    frame=28753 fps=353 q=-0.0 size=N/A time=00:19:59.23 bitrate=N/A speed=14.7x    frame=28924 fps=352 q=-0.0 size=N/A time=00:20:06.37 bitrate=N/A speed=14.7x    frame=29087 fps=352 q=-0.0 size=N/A time=00:20:13.17 bitrate=N/A speed=14.7x    frame=29266 fps=352 q=-0.0 size=N/A time=00:20:20.63 bitrate=N/A speed=14.7x    frame=29437 fps=352 q=-0.0 size=N/A time=00:20:27.76 bitrate=N/A speed=14.7x    frame=29605 fps=352 q=-0.0 size=N/A time=00:20:34.77 bitrate=N/A speed=14.7x    frame=29775 fps=352 q=-0.0 size=N/A time=00:20:41.86 bitrate=N/A speed=14.7x    frame=29944 fps=352 q=-0.0 size=N/A time=00:20:48.91 bitrate=N/A speed=14.7x    frame=30100 fps=351 q=-0.0 size=N/A time=00:20:55.42 bitrate=N/A speed=14.7x    frame=30280 fps=351 q=-0.0 size=N/A time=00:21:02.92 bitrate=N/A speed=14.7x    frame=30468 fps=351 q=-0.0 size=N/A time=00:21:10.76 bitrate=N/A speed=14.7x    frame=30653 fps=351 q=-0.0 size=N/A time=00:21:18.48 bitrate=N/A speed=14.7x    frame=30836 fps=351 q=-0.0 size=N/A time=00:21:26.11 bitrate=N/A speed=14.7x    frame=31021 fps=351 q=-0.0 size=N/A time=00:21:33.83 bitrate=N/A speed=14.7x    frame=31206 fps=351 q=-0.0 size=N/A time=00:21:41.55 bitrate=N/A speed=14.7x    frame=31386 fps=351 q=-0.0 size=N/A time=00:21:49.05 bitrate=N/A speed=14.7x    frame=31565 fps=351 q=-0.0 size=N/A time=00:21:56.52 bitrate=N/A speed=14.7x    frame=31753 fps=351 q=-0.0 size=N/A time=00:22:04.36 bitrate=N/A speed=14.7x    frame=31919 fps=351 q=-0.0 size=N/A time=00:22:11.28 bitrate=N/A speed=14.7x    frame=32101 fps=351 q=-0.0 size=N/A time=00:22:18.87 bitrate=N/A speed=14.7x    frame=32287 fps=351 q=-0.0 size=N/A time=00:22:26.63 bitrate=N/A speed=14.7x    frame=32480 fps=352 q=-0.0 size=N/A time=00:22:34.68 bitrate=N/A speed=14.7x    frame=32647 fps=351 q=-0.0 size=N/A time=00:22:41.65 bitrate=N/A speed=14.7x    frame=32796 fps=351 q=-0.0 size=N/A time=00:22:47.86 bitrate=N/A speed=14.6x    frame=32959 fps=351 q=-0.0 size=N/A time=00:22:54.66 bitrate=N/A speed=14.6x    frame=33130 fps=351 q=-0.0 size=N/A time=00:23:01.79 bitrate=N/A speed=14.6x    frame=33312 fps=351 q=-0.0 size=N/A time=00:23:09.38 bitrate=N/A speed=14.6x    frame=33475 fps=351 q=-0.0 size=N/A time=00:23:16.18 bitrate=N/A speed=14.6x    frame=33628 fps=350 q=-0.0 size=N/A time=00:23:22.56 bitrate=N/A speed=14.6x    frame=33758 fps=350 q=-0.0 size=N/A time=00:23:27.98 bitrate=N/A speed=14.6x    frame=33880 fps=349 q=-0.0 size=N/A time=00:23:33.07 bitrate=N/A speed=14.6x    frame=34036 fps=349 q=-0.0 size=N/A time=00:23:39.58 bitrate=N/A speed=14.6x    frame=34190 fps=349 q=-0.0 size=N/A time=00:23:46.00 bitrate=N/A speed=14.5x    frame=34327 fps=348 q=-0.0 size=N/A time=00:23:51.72 bitrate=N/A speed=14.5x    frame=34460 fps=348 q=-0.0 size=N/A time=00:23:57.26 bitrate=N/A speed=14.5x    frame=34627 fps=348 q=-0.0 size=N/A time=00:24:04.23 bitrate=N/A speed=14.5x    [Parsed_psnr_16 @ 000001501aca8a40] PSNR y:48.991918 u:50.353583 v:50.398297 average:49.406095 min:37.975736 max:inf
[out#0/null @ 000001500db0fe80] video:14903KiB audio:271276KiB subtitle:0KiB other streams:0KiB global headers:0KiB muxing overhead: unknown
frame=34683 fps=348 q=-0.0 Lsize=N/A time=00:24:06.57 bitrate=N/A speed=14.5x    
